<?xml version="1.0" standalone="no"?>
<!DOCTYPE svg PUBLIC "-//W3C//DTD SVG 20010904//EN"
 "http://www.w3.org/TR/2001/REC-SVG-20010904/DTD/svg10.dtd">
<svg version="1.0" xmlns="http://www.w3.org/2000/svg"
 width="512.000000pt" height="512.000000pt" viewBox="0 0 512.000000 512.000000"
 preserveAspectRatio="xMidYMid meet">

<g transform="translate(0.000000,512.000000) scale(0.100000,-0.100000)"
fill="#000000" stroke="none">
<path d="M345 5106 c-182 -45 -313 -195 -335 -386 -7 -56 -10 -871 -8 -2381 3
-2245 3 -2297 22 -2318 l19 -21 2181 2 c1991 3 2184 4 2213 19 29 16 35 15 90
-3 140 -48 305 13 388 143 57 89 55 37 55 1350 l0 1207 30 12 c17 7 46 31 65
53 86 101 52 252 -70 308 -36 17 -70 19 -370 19 -324 0 -332 0 -375 -22 -70
-36 -103 -86 -108 -162 -3 -49 0 -71 17 -103 21 -43 67 -87 101 -98 20 -6 20
-14 20 -802 0 -438 -2 -794 -4 -792 -2 2 -97 180 -210 396 l-206 392 0 403 0
403 33 16 c85 41 122 169 75 259 -13 26 -41 57 -66 75 -44 30 -44 30 -208 33
l-164 4 0 164 0 164 578 0 c614 0 637 2 731 49 71 36 148 117 186 194 46 95
55 149 55 339 0 155 -1 159 -25 183 l-24 25 -371 0 -370 0 0 213 c0 116 -5
246 -10 287 -24 186 -166 340 -348 379 -80 17 -3518 14 -3587 -3z m3166 -134
c-5 -10 -16 -24 -24 -30 -8 -7 -29 -45 -48 -84 l-34 -73 -3 -837 -2 -836 -164
-4 c-164 -3 -164 -3 -207 -33 -23 -16 -53 -50 -67 -75 -47 -88 -9 -218 75
-259 l33 -16 0 -404 0 -404 -387 -736 c-450 -856 -419 -769 -336 -943 l52
-108 -1135 0 -1134 0 2 2308 3 2307 33 67 c38 78 92 129 166 157 50 19 88 20
1619 20 1517 1 1567 0 1558 -17z m442 -2 c76 -29 130 -79 169 -158 l33 -67 5
-485 5 -485 34 -73 c19 -39 40 -77 48 -84 8 -6 19 -20 24 -30 9 -17 -5 -18
-366 -18 l-375 0 0 588 c1 632 0 623 54 701 31 44 99 96 153 116 57 21 153 18
216 -5z m995 -1017 c-3 -125 -7 -155 -25 -195 -32 -70 -94 -131 -164 -163 -55
-24 -70 -27 -152 -23 -109 4 -163 26 -232 94 -69 69 -85 126 -85 294 l0 140
331 0 331 0 -4 -147z m-1110 -989 c16 -11 22 -25 22 -54 0 -70 3 -70 -397 -70
-340 0 -354 1 -373 20 -11 11 -20 33 -20 50 0 17 9 39 20 50 19 19 33 20 373
20 303 0 356 -2 375 -16z m1131 -10 c12 -15 21 -34 21 -44 0 -10 -9 -29 -21
-44 l-20 -26 -320 0 -320 0 -24 25 c-30 30 -31 54 -4 89 l20 26 324 0 324 0
20 -26z m-1237 -661 l3 -418 181 -340 c100 -187 181 -341 180 -342 -1 -2 -27
7 -57 19 -40 16 -75 22 -139 22 -74 0 -95 -5 -157 -32 -98 -44 -163 -44 -270
0 -68 28 -89 32 -163 31 -72 0 -96 -5 -157 -32 -93 -40 -173 -42 -251 -6 l-53
24 32 62 c17 34 96 185 175 335 l144 274 0 410 0 410 265 0 264 0 3 -417z
m1108 176 l0 -240 -37 -15 c-48 -20 -91 -13 -145 24 -62 42 -111 55 -184 49
l-64 -5 0 214 0 214 215 0 215 0 0 -241z m-242 -344 c70 -42 135 -58 196 -46
l46 8 0 -896 c0 -851 -1 -898 -19 -936 -36 -77 -111 -125 -196 -125 -85 0
-160 48 -196 125 -18 38 -19 86 -19 957 l0 917 22 15 c39 28 103 20 166 -19z
m-1163 -1046 c54 -24 89 -32 155 -36 80 -5 91 -3 177 31 116 45 160 46 256 6
39 -17 91 -34 114 -37 43 -6 44 -6 93 -102 l50 -96 0 -222 0 -223 -835 0 -835
0 0 -65 0 -65 838 0 837 0 29 -62 c17 -35 32 -66 34 -71 2 -4 -403 -6 -900 -5
l-903 3 -62 120 c-34 66 -62 127 -63 135 0 12 352 695 366 709 2 2 32 -8 66
-24 48 -21 84 -29 148 -32 80 -5 91 -3 175 31 116 45 165 46 260 5z"/>
<path d="M1580 4551 c-19 -5 -44 -40 -104 -144 l-80 -137 -150 0 c-101 0 -159
-4 -176 -13 -25 -12 -209 -316 -210 -346 0 -14 163 -304 188 -333 13 -16 37
-18 213 -18 l198 0 24 33 c13 17 53 83 88 145 l63 112 131 0 130 0 80 -140
c64 -112 86 -142 109 -150 43 -15 345 -13 376 3 25 13 209 317 210 346 0 15
-163 303 -188 333 -13 15 -38 18 -179 20 l-165 3 -81 140 c-62 105 -88 141
-107 146 -33 9 -338 9 -370 0z m381 -235 l66 -114 -59 -104 c-33 -56 -65 -109
-70 -116 -8 -9 -44 -12 -137 -10 l-125 3 -63 105 c-34 58 -63 111 -63 119 0 7
28 62 63 122 l62 109 130 0 130 0 66 -114z m-503 -290 c73 -126 74 -103 -14
-252 l-55 -94 -128 0 -128 0 -67 115 -67 116 67 115 66 115 131 -3 131 -3 64
-109z m1006 -1 l67 -116 -67 -115 -66 -115 -131 3 -131 3 -63 110 c-73 125
-74 103 13 251 l55 94 128 0 128 0 67 -115z"/>
<path d="M450 3165 l0 -65 1165 0 1165 0 0 65 0 65 -1165 0 -1165 0 0 -65z"/>
<path d="M450 2745 l0 -65 1165 0 1165 0 0 65 0 65 -1165 0 -1165 0 0 -65z"/>
<path d="M450 2325 l0 -65 1165 0 1165 0 0 65 0 65 -1165 0 -1165 0 0 -65z"/>
<path d="M450 1900 l0 -60 1065 0 1065 0 0 60 0 60 -1065 0 -1065 0 0 -60z"/>
<path d="M450 1480 l0 -60 1065 0 1065 0 0 60 0 60 -1065 0 -1065 0 0 -60z"/>
<path d="M450 1055 l0 -65 950 0 950 0 0 65 0 65 -950 0 -950 0 0 -65z"/>
<path d="M3270 2570 l0 -60 120 0 120 0 0 60 0 60 -120 0 -120 0 0 -60z"/>
<path d="M3277 2394 c-4 -4 -7 -34 -7 -66 l0 -58 120 0 121 0 -3 63 -3 62
-111 3 c-60 1 -113 -1 -117 -4z"/>
<path d="M3270 2095 l0 -65 120 0 121 0 -3 63 -3 62 -117 3 -118 3 0 -66z"/>
</g>
</svg>
