<?xml version="1.0" standalone="no"?>
<!DOCTYPE svg PUBLIC "-//W3C//DTD SVG 20010904//EN"
 "http://www.w3.org/TR/2001/REC-SVG-20010904/DTD/svg10.dtd">
<svg version="1.0" xmlns="http://www.w3.org/2000/svg"
 width="512.000000pt" height="512.000000pt" viewBox="0 0 512.000000 512.000000"
 preserveAspectRatio="xMidYMid meet">

<g transform="translate(0.000000,512.000000) scale(0.100000,-0.100000)"
fill="#000000" stroke="none">
<path d="M386 5104 c-132 -32 -260 -131 -323 -250 -65 -123 -63 -61 -63 -1440
0 -797 4 -1271 10 -1305 30 -163 170 -309 355 -370 33 -11 435 -15 2185 -19
l2145 -5 60 -24 c122 -49 205 -167 205 -291 0 -124 -83 -242 -205 -291 l-60
-24 -1635 -5 c-1332 -4 -1642 -8 -1675 -19 -63 -21 -136 -60 -182 -98 l-43
-34 0 291 0 291 -25 24 c-32 33 -78 33 -111 0 l-25 -25 3 -527 c3 -515 4 -530
25 -594 45 -132 156 -266 271 -327 121 -65 70 -62 1230 -62 l1053 0 24 25 c49
48 38 72 -95 212 -117 125 -119 128 -101 148 249 282 255 292 203 345 -58 58
-77 45 -266 -173 -181 -207 -179 -196 -64 -313 l82 -84 -960 2 -959 3 -48 24
c-104 52 -182 145 -218 262 -24 78 -24 131 1 210 37 119 123 203 242 241 57
17 132 18 1646 18 1361 0 1597 2 1657 15 190 40 333 173 380 350 23 88 23
2487 0 2584 -41 174 -176 321 -354 385 -56 21 -69 21 -2191 26 l-2135 5 -57
27 c-76 35 -142 98 -175 167 -39 79 -40 191 -2 272 37 79 90 133 167 171 l67
33 1028 3 1028 2 -81 -106 c-85 -113 -95 -144 -62 -182 9 -11 75 -68 145 -126
100 -83 134 -106 158 -106 54 0 93 61 73 114 -3 8 -50 52 -105 97 l-99 82 23
31 c174 231 187 251 187 278 0 17 -10 39 -25 53 l-24 25 -1113 -1 c-925 -1
-1123 -3 -1172 -15z m-196 -869 c24 -29 119 -76 196 -95 76 -20 115 -20 2165
-20 2061 0 2088 0 2150 -20 119 -37 203 -123 241 -242 16 -55 18 -101 18 -535
l0 -474 -42 34 c-106 86 -213 117 -405 117 -79 0 -134 4 -138 10 -4 6 -30 22
-58 37 -73 38 -161 38 -234 0 -28 -15 -54 -31 -58 -37 -3 -5 -35 -10 -71 -10
-88 0 -101 -15 -138 -153 -16 -59 -32 -104 -36 -100 -4 4 -47 240 -94 523 -49
284 -94 525 -102 537 -8 13 -25 25 -39 29 -36 9 -73 -3 -89 -29 -8 -12 -52
-197 -98 -412 l-84 -390 -63 -3 c-44 -2 -68 1 -80 11 -75 67 -198 81 -288 34
-28 -15 -54 -31 -58 -37 -9 -14 -641 -14 -650 0 -4 6 -30 22 -58 37 -73 38
-161 38 -234 0 -28 -15 -54 -31 -58 -37 -3 -5 -35 -10 -71 -10 -88 0 -101 -15
-138 -153 -16 -59 -32 -104 -36 -100 -4 4 -47 240 -94 523 -49 284 -94 525
-102 537 -27 42 -101 42 -128 0 -8 -12 -51 -193 -96 -402 -44 -209 -83 -387
-85 -395 -8 -26 -121 -10 -168 22 -86 60 -207 59 -301 -4 -43 -28 -51 -30
-101 -23 -114 14 -230 99 -278 203 -21 46 -22 59 -25 545 -2 295 1 497 6 497
5 0 15 -7 22 -15z m1266 -1922 c18 -29 57 -38 94 -23 34 14 41 31 106 255 25
88 54 190 65 228 l20 67 43 0 c33 0 52 7 79 29 57 45 91 56 127 41 17 -7 47
-26 67 -41 l36 -29 367 0 367 0 36 29 c20 15 50 34 67 41 36 15 70 4 127 -41
30 -24 45 -29 93 -29 49 0 60 -4 84 -29 59 -61 131 -62 155 -3 6 15 34 131 61
257 28 127 53 237 56 245 4 8 35 -151 70 -355 35 -203 73 -428 85 -500 25
-143 43 -175 97 -175 56 0 68 22 128 230 30 107 64 225 75 263 l20 67 43 0
c33 0 52 7 79 29 58 45 91 56 128 40 18 -7 45 -24 62 -38 30 -25 36 -26 206
-31 171 -5 178 -6 241 -36 82 -39 144 -101 184 -184 l31 -65 3 -397 c2 -219 1
-398 -1 -398 -3 0 -28 15 -55 34 -28 18 -79 44 -114 57 l-63 24 -2150 5 -2150
5 -65 31 c-87 41 -133 83 -167 152 l-28 57 -3 423 c-2 232 0 422 3 422 3 0 27
-16 54 -35 74 -54 171 -86 277 -92 90 -6 90 -6 126 25 70 62 120 64 189 6 36
-30 48 -34 96 -34 53 0 58 -2 97 -45 33 -35 49 -45 75 -45 62 0 71 20 130 300
30 140 56 259 59 265 3 5 44 -213 90 -485 46 -274 90 -505 98 -517z"/>
</g>
</svg>
