<?xml version="1.0" standalone="no"?>
<!DOCTYPE svg PUBLIC "-//W3C//DTD SVG 20010904//EN"
 "http://www.w3.org/TR/2001/REC-SVG-20010904/DTD/svg10.dtd">
<svg version="1.0" xmlns="http://www.w3.org/2000/svg"
 width="512.000000pt" height="512.000000pt" viewBox="0 0 512.000000 512.000000"
 preserveAspectRatio="xMidYMid meet">

<g transform="translate(0.000000,512.000000) scale(0.100000,-0.100000)"
fill="#000000" stroke="none">
<path d="M880 4791 c-82 -27 -163 -90 -195 -150 -9 -19 -26 -32 -44 -36 -46
-10 -141 -76 -193 -134 -88 -98 -134 -230 -125 -361 6 -96 235 -1052 277
-1156 78 -195 250 -381 433 -467 57 -27 172 -67 194 -67 11 0 13 -143 13 -817
0 -664 3 -831 14 -884 40 -188 182 -335 371 -384 242 -62 498 78 587 322 19
51 23 86 28 303 5 233 7 247 30 295 47 96 144 168 245 182 l45 6 0 158 0 159
-32 0 c-66 -1 -175 -31 -258 -71 -117 -58 -221 -162 -279 -279 -59 -121 -71
-189 -71 -423 0 -206 -6 -244 -48 -291 -24 -27 -91 -56 -131 -56 -52 0 -118
37 -149 83 l-27 41 -3 827 -2 827 37 7 c196 36 435 212 544 401 62 107 66 117
251 694 l162 505 0 110 c0 95 -4 119 -27 178 -14 37 -39 86 -56 110 -54 80
-164 165 -234 182 -16 4 -34 19 -43 36 -22 44 -79 96 -137 126 -45 24 -64 28
-137 28 -100 -1 -160 -24 -225 -90 -66 -65 -90 -125 -90 -225 0 -100 24 -160
90 -225 65 -66 125 -89 225 -90 73 0 92 4 135 27 28 14 65 41 83 58 28 28 34
31 49 19 24 -21 53 -89 53 -129 0 -38 -306 -1012 -344 -1095 -85 -184 -263
-308 -461 -322 -157 -10 -291 42 -411 162 -116 115 -125 139 -264 723 -66 277
-120 517 -120 535 0 37 30 106 53 126 15 12 21 9 49 -19 18 -17 56 -44 83 -58
43 -23 62 -27 135 -27 70 0 94 5 135 25 64 31 124 91 155 155 35 72 35 198 0
270 -32 64 -92 124 -155 154 -54 26 -169 37 -215 22z"/>
<path d="M2815 3346 c-41 -18 -83 -69 -90 -109 -3 -18 -4 -658 -3 -1424 3
-1388 3 -1392 24 -1419 11 -15 33 -37 48 -48 27 -21 34 -21 966 -21 932 0 939
0 966 21 15 11 37 33 48 48 21 27 21 29 21 1446 0 1417 0 1419 -21 1446 -11
15 -33 37 -48 48 -27 21 -36 21 -954 23 -755 2 -933 0 -957 -11z m1800 -331
c25 -24 25 -26 25 -215 0 -189 0 -191 -25 -215 l-24 -25 -831 0 -831 0 -24 25
c-25 24 -25 26 -25 215 0 189 0 191 25 215 l24 25 831 0 831 0 24 -25z m-1440
-800 c24 -23 25 -31 25 -135 0 -104 -1 -112 -25 -135 -23 -24 -31 -25 -135
-25 -104 0 -112 1 -135 25 -24 23 -25 31 -25 135 0 104 1 112 25 135 23 24 31
25 135 25 104 0 112 -1 135 -25z m480 0 c24 -23 25 -31 25 -135 0 -104 -1
-112 -25 -135 -23 -24 -31 -25 -135 -25 -104 0 -112 1 -135 25 -24 23 -25 31
-25 135 0 104 1 112 25 135 23 24 31 25 135 25 104 0 112 -1 135 -25z m480 0
c24 -23 25 -31 25 -135 0 -104 -1 -112 -25 -135 -23 -24 -31 -25 -135 -25
-104 0 -112 1 -135 25 -24 23 -25 31 -25 135 0 104 1 112 25 135 23 24 31 25
135 25 104 0 112 -1 135 -25z m480 0 c24 -23 25 -31 25 -135 0 -104 -1 -112
-25 -135 -23 -24 -31 -25 -135 -25 -104 0 -112 1 -135 25 -24 23 -25 31 -25
135 0 104 1 112 25 135 23 24 31 25 135 25 104 0 112 -1 135 -25z m-1440 -480
c24 -23 25 -31 25 -135 0 -104 -1 -112 -25 -135 -23 -24 -31 -25 -135 -25
-104 0 -112 1 -135 25 -24 23 -25 31 -25 135 0 104 1 112 25 135 23 24 31 25
135 25 104 0 112 -1 135 -25z m480 0 c24 -23 25 -31 25 -135 0 -104 -1 -112
-25 -135 -23 -24 -31 -25 -135 -25 -104 0 -112 1 -135 25 -24 23 -25 31 -25
135 0 104 1 112 25 135 23 24 31 25 135 25 104 0 112 -1 135 -25z m480 0 c24
-23 25 -31 25 -135 0 -104 -1 -112 -25 -135 -23 -24 -31 -25 -135 -25 -104 0
-112 1 -135 25 -24 23 -25 31 -25 135 0 104 1 112 25 135 23 24 31 25 135 25
104 0 112 -1 135 -25z m480 0 c24 -23 25 -31 25 -135 0 -104 -1 -112 -25 -135
-23 -24 -31 -25 -135 -25 -104 0 -112 1 -135 25 -24 23 -25 31 -25 135 0 104
1 112 25 135 23 24 31 25 135 25 104 0 112 -1 135 -25z m-1440 -480 c24 -23
25 -31 25 -135 0 -104 -1 -112 -25 -135 -23 -24 -31 -25 -135 -25 -104 0 -112
1 -135 25 -24 23 -25 31 -25 135 0 104 1 112 25 135 23 24 31 25 135 25 104 0
112 -1 135 -25z m480 0 c24 -23 25 -31 25 -135 0 -104 -1 -112 -25 -135 -23
-24 -31 -25 -135 -25 -104 0 -112 1 -135 25 -24 23 -25 31 -25 135 0 104 1
112 25 135 23 24 31 25 135 25 104 0 112 -1 135 -25z m480 0 c24 -23 25 -31
25 -135 0 -104 -1 -112 -25 -135 -23 -24 -31 -25 -135 -25 -104 0 -112 1 -135
25 -24 23 -25 31 -25 135 0 104 1 112 25 135 23 24 31 25 135 25 104 0 112 -1
135 -25z m480 0 c24 -23 25 -31 25 -135 0 -104 -1 -112 -25 -135 -23 -24 -31
-25 -135 -25 -104 0 -112 1 -135 25 -24 23 -25 31 -25 135 0 104 1 112 25 135
23 24 31 25 135 25 104 0 112 -1 135 -25z m-1440 -480 c24 -23 25 -31 25 -135
0 -104 -1 -112 -25 -135 -23 -24 -31 -25 -135 -25 -104 0 -112 1 -135 25 -24
23 -25 31 -25 135 0 104 1 112 25 135 23 24 31 25 135 25 104 0 112 -1 135
-25z m480 0 c24 -23 25 -31 25 -135 0 -104 -1 -112 -25 -135 -23 -24 -31 -25
-135 -25 -104 0 -112 1 -135 25 -24 23 -25 31 -25 135 0 104 1 112 25 135 23
24 31 25 135 25 104 0 112 -1 135 -25z m480 0 c24 -23 25 -31 25 -135 0 -104
-1 -112 -25 -135 -23 -24 -31 -25 -135 -25 -104 0 -112 1 -135 25 -24 23 -25
31 -25 135 0 104 1 112 25 135 23 24 31 25 135 25 104 0 112 -1 135 -25z m480
0 c24 -23 25 -31 25 -135 0 -104 -1 -112 -25 -135 -23 -24 -31 -25 -135 -25
-104 0 -112 1 -135 25 -24 23 -25 31 -25 135 0 104 1 112 25 135 23 24 31 25
135 25 104 0 112 -1 135 -25z"/>
</g>
</svg>
