<?xml version="1.0" standalone="no"?>
<!DOCTYPE svg PUBLIC "-//W3C//DTD SVG 20010904//EN"
 "http://www.w3.org/TR/2001/REC-SVG-20010904/DTD/svg10.dtd">
<svg version="1.0" xmlns="http://www.w3.org/2000/svg"
 width="512.000000pt" height="512.000000pt" viewBox="0 0 512.000000 512.000000"
 preserveAspectRatio="xMidYMid meet">

<g transform="translate(0.000000,512.000000) scale(0.100000,-0.100000)"
fill="#000000" stroke="none">
<path d="M240 2560 l0 -2480 2320 0 2320 0 0 2480 0 2480 -2320 0 -2320 0 0
-2480z m4480 0 l0 -2320 -2160 0 -2160 0 0 2320 0 2320 2160 0 2160 0 0 -2320z"/>
<path d="M2320 3816 c0 -632 -3 -912 -10 -932 -26 -69 -76 -99 -180 -109 -92
-9 -179 -36 -243 -77 -43 -27 -54 -30 -102 -25 -73 7 -132 36 -182 87 -77 79
-142 235 -159 381 l-7 59 -38 0 -39 0 0 -42 c0 -24 7 -88 15 -142 8 -55 13
-101 11 -104 -3 -2 -28 1 -56 7 -28 6 -87 11 -130 11 l-80 0 0 -27 c0 -66 5
-70 93 -76 133 -8 184 -33 291 -142 85 -87 170 -145 211 -145 19 0 20 3 -10
-65 -29 -65 -65 -204 -65 -251 0 -42 -52 -117 -107 -153 -52 -34 -132 -67
-205 -82 l-48 -11 0 -49 0 -50 38 6 c121 20 204 47 271 89 l38 25 8 -146 c4
-80 9 -152 12 -160 3 -7 20 -13 39 -13 38 0 37 -5 54 180 38 399 87 568 192
666 59 55 117 82 196 90 l60 7 10 -49 c75 -351 131 -821 120 -999 -10 -155
-111 -290 -258 -346 -61 -23 -920 -133 -975 -124 -102 16 -195 82 -246 177
l-34 63 -3 160 c-7 279 24 680 74 980 90 542 263 960 505 1218 92 100 174 160
284 213 113 53 190 70 243 54 49 -16 100 -66 112 -110 6 -21 10 -228 10 -507
l0 -473 75 0 75 0 0 494 c0 563 0 560 -78 648 -115 128 -280 141 -497 39 -292
-137 -529 -423 -694 -838 -160 -403 -246 -917 -266 -1588 -8 -249 1 -318 53
-421 81 -159 246 -264 419 -266 78 0 848 96 938 118 206 50 366 219 411 433
16 82 14 161 -12 441 -18 191 -46 377 -85 578 l-31 153 42 40 c23 23 54 66 68
97 l27 57 3 928 2 927 -80 0 -80 0 0 -904z"/>
<path d="M2642 3793 l3 -928 26 -56 c15 -32 46 -76 69 -99 l41 -41 -30 -152
c-53 -270 -88 -546 -106 -837 -17 -283 121 -509 364 -597 73 -27 878 -136 994
-135 172 2 338 107 419 266 52 103 61 172 53 421 -28 965 -195 1616 -526 2060
-245 329 -621 510 -835 402 -68 -34 -136 -111 -157 -177 -15 -46 -17 -111 -17
-546 l0 -494 75 0 75 0 0 473 c0 279 4 486 10 506 14 48 64 97 115 111 54 15
136 -4 250 -59 380 -182 660 -696 780 -1434 50 -309 79 -694 73 -972 l-3 -160
-34 -63 c-51 -95 -144 -161 -246 -177 -49 -8 -900 98 -964 120 -153 51 -260
192 -269 357 -10 180 45 643 120 992 l10 49 60 -7 c79 -8 137 -35 196 -90 105
-98 154 -269 192 -666 17 -185 16 -180 54 -180 19 0 36 6 39 13 3 8 8 80 12
160 l8 146 38 -25 c58 -36 127 -61 219 -78 45 -9 84 -16 86 -16 2 0 4 22 4 49
l0 49 -48 11 c-73 15 -153 48 -205 82 -55 36 -107 111 -107 153 0 47 -36 186
-65 251 -30 68 -29 65 -10 65 41 0 126 58 211 145 107 109 158 134 291 142 88
6 93 10 93 76 l0 27 -80 0 c-43 0 -102 -5 -130 -11 -28 -6 -53 -9 -56 -7 -2 3
3 49 11 104 8 54 15 118 15 142 l0 42 -40 0 c-37 0 -40 -2 -40 -27 -1 -61 -42
-212 -79 -288 -64 -133 -149 -200 -266 -212 -48 -5 -59 -2 -102 25 -64 41
-152 68 -243 77 -95 9 -143 34 -170 91 -20 41 -21 56 -20 948 l0 906 -80 0
-80 0 2 -927z"/>
<path d="M4000 4640 l0 -80 280 0 280 0 0 80 0 80 -280 0 -280 0 0 -80z"/>
<path d="M4000 4320 l0 -80 280 0 280 0 0 80 0 80 -280 0 -280 0 0 -80z"/>
<path d="M2160 480 l0 -80 80 0 80 0 0 80 0 80 -80 0 -80 0 0 -80z"/>
<path d="M2480 480 l0 -80 80 0 80 0 0 80 0 80 -80 0 -80 0 0 -80z"/>
<path d="M2800 480 l0 -80 80 0 80 0 0 80 0 80 -80 0 -80 0 0 -80z"/>
</g>
</svg>
