<?xml version="1.0" encoding="UTF-8"?>
<svg xmlns="http://www.w3.org/2000/svg" xmlns:xlink="http://www.w3.org/1999/xlink" width="35px" height="35px" viewBox="0 0 35 35" version="1.1">
<g id="surface1">
<path style=" stroke:none;fill-rule:nonzero;fill:rgb(0%,0%,0%);fill-opacity:1;" d="M 31.046875 32.742188 C 31.980469 32.742188 32.742188 31.980469 32.742188 31.046875 C 32.742188 30.117188 31.980469 29.355469 31.046875 29.355469 C 30.117188 29.355469 29.355469 30.117188 29.355469 31.046875 C 29.355469 31.980469 30.117188 32.742188 31.046875 32.742188 Z M 31.046875 30.484375 C 31.359375 30.484375 31.613281 30.738281 31.613281 31.046875 C 31.613281 31.359375 31.359375 31.613281 31.046875 31.613281 C 30.738281 31.613281 30.484375 31.359375 30.484375 31.046875 C 30.484375 30.738281 30.738281 30.484375 31.046875 30.484375 Z M 31.046875 30.484375 "/>
<path style=" stroke:none;fill-rule:nonzero;fill:rgb(0%,0%,0%);fill-opacity:1;" d="M 31.046875 21.453125 L 35 21.453125 L 35 14.675781 C 35 12.1875 32.972656 10.160156 30.484375 10.160156 L 29.71875 10.160156 C 30.871094 9.230469 31.613281 7.804688 31.613281 6.210938 L 31.613281 3.953125 C 31.613281 1.773438 29.839844 0 27.660156 0 L 25.402344 0 C 23.226562 0 21.453125 1.773438 21.453125 3.953125 L 21.453125 6.210938 C 21.453125 7.804688 22.191406 9.230469 23.347656 10.160156 L 22.582031 10.160156 C 20.089844 10.160156 18.066406 12.1875 18.066406 14.675781 L 18.066406 19.558594 C 17.324219 18.957031 16.414062 18.628906 15.445312 18.628906 C 13.15625 18.628906 11.289062 20.492188 11.289062 22.785156 C 11.289062 23.898438 11.722656 24.941406 12.507812 25.726562 L 16.574219 29.792969 C 16.792969 30.011719 17.023438 30.210938 17.265625 30.390625 C 16.945312 30.453125 16.621094 30.484375 16.289062 30.484375 L 13.546875 30.484375 C 10.746094 30.484375 8.46875 28.207031 8.46875 25.402344 L 8.46875 15.214844 C 12.5625 14.921875 15.804688 11.503906 15.804688 7.339844 L 15.804688 2.824219 C 15.804688 1.890625 15.046875 1.128906 14.113281 1.128906 L 13.445312 1.128906 C 13.210938 0.472656 12.589844 0 11.855469 0 L 9.03125 0 L 9.03125 3.386719 L 11.855469 3.386719 C 12.589844 3.386719 13.210938 2.914062 13.445312 2.257812 L 14.113281 2.257812 C 14.425781 2.257812 14.675781 2.511719 14.675781 2.824219 L 14.675781 7.339844 C 14.675781 11.074219 11.636719 14.113281 7.902344 14.113281 C 4.167969 14.113281 1.128906 11.074219 1.128906 7.339844 L 1.128906 2.824219 C 1.128906 2.511719 1.382812 2.257812 1.695312 2.257812 L 2.363281 2.257812 C 2.59375 2.914062 3.21875 3.386719 3.953125 3.386719 L 6.773438 3.386719 L 6.773438 0 L 3.953125 0 C 3.21875 0 2.59375 0.472656 2.363281 1.128906 L 1.695312 1.128906 C 0.761719 1.128906 0 1.890625 0 2.824219 L 0 7.339844 C 0 11.503906 3.242188 14.921875 7.339844 15.214844 L 7.339844 25.402344 C 7.339844 28.828125 10.125 31.613281 13.546875 31.613281 L 16.289062 31.613281 C 17.105469 31.613281 17.894531 31.457031 18.628906 31.160156 C 19.363281 31.457031 20.152344 31.613281 20.96875 31.613281 L 27.144531 31.613281 C 27.417969 33.523438 29.0625 35 31.046875 35 C 33.226562 35 35 33.226562 35 31.046875 C 35 28.871094 33.226562 27.097656 31.046875 27.097656 C 29.0625 27.097656 27.417969 28.570312 27.144531 30.484375 L 20.96875 30.484375 C 20.636719 30.484375 20.3125 30.453125 19.992188 30.390625 C 20.234375 30.210938 20.464844 30.011719 20.683594 29.792969 L 24.75 25.726562 C 25.535156 24.941406 25.96875 23.898438 25.96875 22.785156 C 25.96875 22.316406 25.886719 21.871094 25.746094 21.453125 Z M 11.855469 2.257812 L 10.160156 2.257812 L 10.160156 1.128906 L 11.855469 1.128906 C 12.164062 1.128906 12.417969 1.382812 12.417969 1.695312 C 12.417969 2.003906 12.164062 2.257812 11.855469 2.257812 Z M 3.953125 1.128906 L 5.644531 1.128906 L 5.644531 2.257812 L 3.953125 2.257812 C 3.640625 2.257812 3.386719 2.003906 3.386719 1.695312 C 3.386719 1.382812 3.640625 1.128906 3.953125 1.128906 Z M 31.046875 28.226562 C 32.605469 28.226562 33.871094 29.492188 33.871094 31.046875 C 33.871094 32.605469 32.605469 33.871094 31.046875 33.871094 C 29.492188 33.871094 28.226562 32.605469 28.226562 31.046875 C 28.226562 29.492188 29.492188 28.226562 31.046875 28.226562 Z M 33.871094 20.324219 L 31.613281 20.324219 L 31.613281 18.066406 L 33.871094 18.066406 Z M 29.820312 12.65625 L 27.527344 13.636719 L 29.09375 11.289062 L 29.480469 11.289062 Z M 26.53125 13.097656 L 25.207031 11.109375 C 25.628906 11.222656 26.074219 11.289062 26.53125 11.289062 C 26.992188 11.289062 27.433594 11.222656 27.855469 11.109375 Z M 22.582031 3.953125 C 22.582031 2.394531 23.847656 1.128906 25.402344 1.128906 L 27.660156 1.128906 C 29.21875 1.128906 30.484375 2.394531 30.484375 3.953125 L 30.484375 5.015625 C 29.835938 4.871094 29.261719 4.488281 28.886719 3.921875 L 28.3125 3.066406 L 27.058594 4.320312 C 26.570312 4.808594 25.917969 5.082031 25.21875 5.082031 L 22.582031 5.082031 Z M 22.582031 6.210938 L 25.21875 6.210938 C 26.21875 6.210938 27.15625 5.820312 27.859375 5.117188 L 28.148438 4.828125 C 28.734375 5.550781 29.570312 6.023438 30.484375 6.160156 L 30.484375 6.210938 C 30.484375 8.386719 28.710938 10.160156 26.535156 10.160156 C 24.355469 10.160156 22.582031 8.386719 22.582031 6.210938 Z M 23.585938 11.289062 L 23.972656 11.289062 L 25.535156 13.636719 L 23.246094 12.65625 Z M 19.195312 18.066406 L 21.453125 18.066406 L 21.453125 18.644531 C 20.621094 18.71875 19.839844 19.03125 19.195312 19.558594 Z M 23.953125 24.925781 L 19.882812 28.996094 C 19.507812 29.371094 19.085938 29.679688 18.628906 29.917969 C 18.171875 29.679688 17.75 29.371094 17.375 28.996094 L 13.304688 24.925781 C 12.742188 24.363281 12.417969 23.582031 12.417969 22.785156 C 12.417969 21.117188 13.777344 19.757812 15.445312 19.757812 C 16.246094 19.757812 17.027344 20.082031 17.589844 20.644531 L 18.628906 21.683594 L 19.667969 20.644531 C 20.234375 20.082031 21.011719 19.757812 21.8125 19.757812 C 23.480469 19.757812 24.839844 21.117188 24.839844 22.785156 C 24.839844 23.582031 24.515625 24.363281 23.953125 24.925781 Z M 25.152344 20.324219 C 24.539062 19.496094 23.632812 18.898438 22.582031 18.703125 L 22.582031 14.675781 L 21.453125 14.675781 L 21.453125 16.933594 L 19.195312 16.933594 L 19.195312 14.675781 C 19.195312 12.863281 20.628906 11.382812 22.417969 11.296875 L 21.917969 13.3125 L 26.53125 15.292969 L 31.148438 13.3125 L 30.644531 11.296875 C 32.4375 11.382812 33.871094 12.863281 33.871094 14.675781 L 33.871094 16.933594 L 31.613281 16.933594 L 31.613281 14.675781 L 30.484375 14.675781 L 30.484375 20.324219 Z M 25.152344 20.324219 "/>
</g>
</svg>
